# This file uses centimeters as units for non-parametric coordinates.

mtllib 1.mtl
g default
v -447.001932 -0.894165 363.297755
v -446.929590 -1.577085 363.488986
v -446.975521 -1.594132 363.428113
v -446.975521 -1.560038 363.549865
v -447.049840 -1.566549 363.526613
v -447.049840 -1.587621 363.451364
v -447.001932 -1.720964 363.529277
v -446.982164 -1.033760 363.273669
v -446.962402 -1.306190 363.286798
v -447.053677 -1.027494 363.296051
v -447.105416 -1.293659 363.331541
v -447.053677 -1.007218 363.368457
v -447.105416 -1.253111 363.476350
v -446.982164 -1.000952 363.390834
v -446.962402 -1.240581 363.521093
v -446.937968 -1.017356 363.332252
v -446.874014 -1.273385 363.403948
vt 0.181169 0.494963
vt 0.211842 0.533442
vt 0.166758 0.582256
vt 0.239547 0.575104
vt 0.177042 0.622668
vt 0.137156 0.542932
vt 0.497751 0.581201
vt 0.538841 0.426570
vt 0.722180 0.528903
vt 0.560992 0.559544
vt 0.524214 0.634081
vt 0.376053 0.570375
vt 0.679226 0.740722
vt 0.618832 0.594624
vt 0.468131 0.766299
vt 0.579096 0.641156
vt 0.555245 0.586423
vt 0.114753 0.356501
vt 0.353548 0.397511
vt 0.373013 0.635644
vt 0.160321 0.722086
vt 0.000000 0.561566
vn 0.797424 -0.318607 -0.512449
vn 0.797484 -0.318205 -0.512606
vn 0.753238 -0.498846 -0.428702
vn 0.797489 -0.005750 0.603306
vn 0.797430 -0.006173 0.603380
vn 0.753354 -0.203630 0.625294
vn -0.303921 0.077966 0.949501
vn -0.303892 0.077440 0.949554
vn -0.291927 -0.074094 0.953566
vn -0.981958 -0.182093 0.050989
vn -0.981958 -0.182093 0.050989
vn -0.952259 -0.293980 0.082331
vn -0.303830 -0.426952 -0.851704
vn -0.303860 -0.426475 -0.851932
vn -0.291677 -0.558612 -0.776452
vn -0.301958 -0.045936 -0.952214
vn -0.308984 -0.259697 -0.914924
vn -0.308986 -0.257680 -0.915494
vn -0.301958 -0.045936 -0.952214
vn 0.808985 -0.149100 -0.568606
vn 0.790549 0.049766 -0.610373
vn 0.790549 0.049766 -0.610373
vn 0.808994 -0.150281 -0.568282
vn -0.977157 0.204648 -0.057308
vn -0.999956 -0.009072 0.002538
vn -0.999956 -0.009073 0.002539
vn -0.977156 0.204648 -0.057308
vn -0.301921 0.455256 0.837607
vn -0.308996 0.255217 0.916180
vn -0.308995 0.253201 0.916740
vn -0.301921 0.455256 0.837607
vn 0.790522 0.359551 0.495781
vn 0.808967 0.167874 0.563374
vn 0.808976 0.166695 0.563711
vn 0.790522 0.359552 0.495780
vn -0.286636 0.123318 -0.950070
vn -0.927023 0.361112 -0.101130
vn -0.286485 0.598857 0.747861
vn 0.750026 0.507997 0.423557
vn 0.749924 0.214192 -0.625888
s 1
g polySurface645 pCone17
usemtl initialShadingGroup
f 3/1/1 2/2/2 7/3/3
s 2
f 2/2/4 4/4/5 7/3/6
s 3
f 4/4/7 5/5/8 7/3/9
s 4
f 5/5/10 6/6/11 7/3/12
s 5
f 6/6/13 3/1/14 7/3/15
f 8/7/16 9/8/17 11/9/18 10/10/19
s 1
f 9/8/20 8/7/21 16/11/22 17/12/23
s 4
f 10/10/24 11/9/25 13/13/26 12/14/27
s 3
f 12/14/28 13/13/29 15/15/30 14/16/31
s 2
f 14/16/32 15/15/33 17/12/34 16/11/35
s 5
f 8/7/16 10/10/19 1/17/36
s 4
f 10/10/24 12/14/27 1/17/37
s 3
f 12/14/28 14/16/31 1/17/38
s 2
f 14/16/32 16/11/35 1/17/39
s 1
f 16/11/22 8/7/21 1/17/40
f 9/18/20 17/19/23 2/2/2 3/1/1
s 2
f 17/19/34 15/20/33 4/4/5 2/2/4
s 3
f 15/20/30 13/21/29 5/5/8 4/4/7
s 4
f 13/21/26 11/22/25 6/6/11 5/5/10
s 5
f 11/22/18 9/18/17 3/1/14 6/6/13
