# This file uses centimeters as units for non-parametric coordinates.

mtllib 2.mtl
g default
v -446.181091 -0.383300 364.492837
v -446.327698 -0.849318 364.492837
v -446.356605 -0.836873 364.449517
v -446.356605 -0.836873 364.536157
v -446.403388 -0.816738 364.519611
v -446.403388 -0.816738 364.466058
v -446.413713 -0.923771 364.492837
v -446.203309 -0.469184 364.451142
v -446.262906 -0.641902 364.409468
v -446.248331 -0.449809 364.467073
v -446.352928 -0.603156 364.441305
v -446.248331 -0.449809 364.518600
v -446.352928 -0.603156 364.544364
v -446.203309 -0.469184 364.534526
v -446.262906 -0.641902 364.576206
v -446.175489 -0.481159 364.492837
v -446.207266 -0.665849 364.492837
vt 0.866350 0.097719
vt 0.883501 0.125908
vt 0.849384 0.154564
vt 0.898407 0.155962
vt 0.852808 0.182318
vt 0.833018 0.125905
vt 0.321023 0.729771
vt 0.394459 0.651550
vt 0.470150 0.770263
vt 0.365250 0.737097
vt 0.319831 0.769407
vt 0.252624 0.684676
vt 0.377430 0.881657
vt 0.388242 0.776197
vt 0.244677 0.829627
vt 0.349983 0.791033
vt 0.353306 0.751136
vt 0.833871 0.000000
vt 0.989250 0.047464
vt 0.982068 0.207519
vt 0.833281 0.247039
vt 0.740203 0.126703
vn 0.665796 -0.470152 -0.579372
vn 0.666018 -0.469786 -0.579415
vn 0.547814 -0.632778 -0.547259
vn 0.666017 -0.469788 0.579414
vn 0.665795 -0.470155 0.579372
vn 0.547814 -0.632778 0.547259
vn -0.350658 -0.046093 0.935369
vn -0.350837 -0.046584 0.935277
vn -0.397978 -0.186325 0.898274
vn -0.976728 0.214480 0.000000
vn -0.976728 0.214481 0.000000
vn -0.995384 0.095972 0.000000
vn -0.350768 -0.046606 -0.935302
vn -0.350590 -0.046117 -0.935393
vn -0.397733 -0.186346 -0.898378
vn -0.193339 0.314594 -0.929328
vn -0.285131 0.119031 -0.951069
vn -0.284303 0.120959 -0.951073
vn -0.193339 0.314593 -0.929328
vn 0.746930 -0.310862 -0.587759
vn 0.810172 -0.117299 -0.574336
vn 0.810172 -0.117298 -0.574336
vn 0.746454 -0.311990 -0.587766
vn -0.813520 0.581536 -0.000000
vn -0.922229 0.386644 -0.000000
vn -0.922229 0.386645 -0.000000
vn -0.813520 0.581537 -0.000000
vn -0.193372 0.314572 0.929328
vn -0.284343 0.120972 0.951060
vn -0.285171 0.119044 0.951055
vn -0.193371 0.314574 0.929328
vn 0.810172 -0.117299 0.574336
vn 0.746930 -0.310862 0.587759
vn 0.746454 -0.311989 0.587766
vn 0.810172 -0.117299 0.574336
vn -0.114788 0.457764 -0.881633
vn -0.703282 0.710911 0.000000
vn -0.114797 0.457627 0.881703
vn 0.837182 0.047945 0.544819
vn 0.837182 0.047945 -0.544819
s 1
g polySurface642 pCone17
usemtl initialShadingGroup
f 3/1/1 2/2/2 7/3/3
s 2
f 2/2/4 4/4/5 7/3/6
s 3
f 4/4/7 5/5/8 7/3/9
s 4
f 5/5/10 6/6/11 7/3/12
s 5
f 6/6/13 3/1/14 7/3/15
f 8/7/16 9/8/17 11/9/18 10/10/19
s 1
f 9/8/20 8/7/21 16/11/22 17/12/23
s 4
f 10/10/24 11/9/25 13/13/26 12/14/27
s 3
f 12/14/28 13/13/29 15/15/30 14/16/31
s 2
f 14/16/32 15/15/33 17/12/34 16/11/35
s 5
f 8/7/16 10/10/19 1/17/36
s 4
f 10/10/24 12/14/27 1/17/37
s 3
f 12/14/28 14/16/31 1/17/38
s 2
f 14/16/32 16/11/35 1/17/39
s 1
f 16/11/22 8/7/21 1/17/40
f 9/18/20 17/19/23 2/2/2 3/1/1
s 2
f 17/19/34 15/20/33 4/4/5 2/2/4
s 3
f 15/20/30 13/21/29 5/5/8 4/4/7
s 4
f 13/21/26 11/22/25 6/6/11 5/5/10
s 5
f 11/22/18 9/18/17 3/1/14 6/6/13
