# This file uses centimeters as units for non-parametric coordinates.

mtllib 3.mtl
g default
v -446.997794 -0.917067 364.492837
v -446.949958 -1.386015 364.492837
v -446.980329 -1.386015 364.451034
v -446.980329 -1.386015 364.534637
v -447.029473 -1.386015 364.518674
v -447.029473 -1.386015 364.467000
v -446.997794 -1.484814 364.492837
v -446.984722 -1.001660 364.452608
v -446.971654 -1.177470 364.412392
v -447.032009 -1.001660 364.467976
v -447.066222 -1.177470 364.443118
v -447.032009 -1.001660 364.517698
v -447.066222 -1.177470 364.542556
v -446.984722 -1.001660 364.533063
v -446.971654 -1.177470 364.573282
v -446.955498 -1.001660 364.492837
v -446.913208 -1.177470 364.492837
vt 0.512781 0.207889
vt 0.548312 0.241937
vt 0.510136 0.296323
vt 0.581322 0.279532
vt 0.525717 0.335004
vt 0.475556 0.261296
vt 0.775473 0.392781
vt 0.816853 0.238230
vt 1.000000 0.340907
vt 0.838755 0.371245
vt 0.801836 0.445714
vt 0.653795 0.381728
vt 0.956649 0.552644
vt 0.896528 0.406437
vt 0.745507 0.577828
vt 0.856703 0.452892
vt 0.832957 0.398116
vt 0.428497 0.079517
vt 0.670627 0.088325
vt 0.721666 0.321743
vt 0.522396 0.435764
vt 0.342107 0.298050
vn 0.797431 -0.168656 -0.579361
vn 0.797490 -0.168229 -0.579404
vn 0.753229 -0.364805 -0.547324
vn 0.797481 -0.168234 0.579415
vn 0.797422 -0.168661 0.579372
vn 0.753302 -0.364713 0.547284
vn -0.303886 -0.180972 0.935362
vn -0.303856 -0.181492 0.935271
vn -0.291929 -0.328453 0.898274
vn -0.981959 -0.189094 0.000000
vn -0.981959 -0.189094 0.000000
vn -0.952251 -0.305317 0.000000
vn -0.303878 -0.181486 -0.935265
vn -0.303908 -0.180965 -0.935357
vn -0.291807 -0.328495 -0.898298
vn -0.302003 0.212533 -0.929314
vn -0.309037 -0.003379 -0.951044
vn -0.309039 -0.001285 -0.951048
vn -0.302003 0.212534 -0.929313
vn 0.808994 0.009739 -0.587736
vn 0.790556 0.212532 -0.574327
vn 0.790556 0.212533 -0.574326
vn 0.809003 0.008515 -0.587743
vn -0.977155 0.212528 0.000000
vn -0.999956 -0.009415 0.000000
vn -0.999956 -0.009415 0.000000
vn -0.977155 0.212528 0.000000
vn -0.301902 0.212538 0.929345
vn -0.308973 -0.001292 0.951070
vn -0.308971 -0.003387 0.951065
vn -0.301902 0.212537 0.929345
vn 0.790537 0.212552 0.574346
vn 0.808977 0.009739 0.587760
vn 0.808986 0.008514 0.587766
vn 0.790536 0.212552 0.574346
vn -0.286491 0.374995 -0.881647
vn -0.927072 0.374883 0.000000
vn -0.286347 0.375012 0.881687
vn 0.749990 0.374995 0.544880
vn 0.749990 0.374995 -0.544880
s 1
g polySurface644 pCone17
usemtl initialShadingGroup
f 3/1/1 2/2/2 7/3/3
s 2
f 2/2/4 4/4/5 7/3/6
s 3
f 4/4/7 5/5/8 7/3/9
s 4
f 5/5/10 6/6/11 7/3/12
s 5
f 6/6/13 3/1/14 7/3/15
f 8/7/16 9/8/17 11/9/18 10/10/19
s 1
f 9/8/20 8/7/21 16/11/22 17/12/23
s 4
f 10/10/24 11/9/25 13/13/26 12/14/27
s 3
f 12/14/28 13/13/29 15/15/30 14/16/31
s 2
f 14/16/32 15/15/33 17/12/34 16/11/35
s 5
f 8/7/16 10/10/19 1/17/36
s 4
f 10/10/24 12/14/27 1/17/37
s 3
f 12/14/28 14/16/31 1/17/38
s 2
f 14/16/32 16/11/35 1/17/39
s 1
f 16/11/22 8/7/21 1/17/40
f 9/18/20 17/19/23 2/2/2 3/1/1
s 2
f 17/19/34 15/20/33 4/4/5 2/2/4
s 3
f 15/20/30 13/21/29 5/5/8 4/4/7
s 4
f 13/21/26 11/22/25 6/6/11 5/5/10
s 5
f 11/22/18 9/18/17 3/1/14 6/6/13
