# This file uses meters as units for non-parametric coordinates.

mtllib grass3.mtl
g default
v -6.612492 0.000000 19.717123
v 6.612492 0.000000 -19.717123
v -6.612492 49.394234 19.717123
v 6.612492 49.394234 -19.717123
v 0.000000 0.000000 0.000000
v 0.000000 49.394234 0.000000
v -20.223923 0.000000 4.845912
v 20.223928 0.000000 -4.845908
v -20.223923 49.394234 4.845912
v 20.223928 49.394234 -4.845908
v 0.000001 0.000000 0.000002
v 0.000001 49.394234 0.000002
v -12.558206 0.000000 -16.576532
v 12.558206 0.000000 16.576532
v -12.558206 49.394234 -16.576532
v 12.558206 49.394234 16.576532
v 0.000001 0.000000 0.000000
v 0.000001 49.394234 0.000000
vt 0.532260 0.352780
vt 1.000000 0.352780
vt 0.532260 0.685523
vt 1.000000 0.685523
vt 0.766130 0.352780
vt 0.766130 0.685523
vt 0.766130 0.352780
vt 0.766130 0.685523
vt 0.532260 0.685523
vt 0.532260 0.352780
vt 1.000000 0.685523
vt 1.000000 0.352780
vt 0.766130 0.352780
vt 0.766130 0.685523
vt 0.532260 0.685523
vt 0.532260 0.352780
vt 1.000000 0.685523
vt 1.000000 0.352780
vn 0.948103 0.000000 0.317963
vn 0.948103 0.000000 0.317963
vn 0.948103 0.000000 0.317963
vn 0.948103 0.000000 0.317963
vn 0.948103 0.000000 0.317963
vn 0.948103 0.000000 0.317963
vn 0.233017 0.000000 0.972473
vn 0.233017 0.000000 0.972473
vn 0.233017 0.000000 0.972473
vn 0.233017 0.000000 0.972473
vn 0.233017 0.000000 0.972473
vn 0.233017 0.000000 0.972473
vn -0.797087 0.000000 0.603865
vn -0.797087 0.000000 0.603865
vn -0.797087 0.000000 0.603865
vn -0.797087 0.000000 0.603865
vn -0.797087 0.000000 0.603865
vn -0.797087 0.000000 0.603865
s 1
g Grass3
usemtl lambert2SG
f 5/5/1 6/6/2 3/3/3 1/1/4
f 4/4/5 6/6/2 5/5/1 2/2/6
s 2
f 11/7/7 12/8/8 9/9/9 7/10/10
f 10/11/11 12/8/8 11/7/7 8/12/12
s 3
f 17/13/13 18/14/14 15/15/15 13/16/16
f 16/17/17 18/14/14 17/13/13 14/18/18
