# This file uses meters as units for non-parametric coordinates.

mtllib grass2.mtl
g default
v -7.436210 0.000000 22.173285
v 7.436210 0.000000 -22.173285
v -7.436210 33.274330 22.173285
v 7.436210 33.274330 -22.173285
v 0.000000 0.000000 0.000000
v 0.000000 33.274330 0.000000
v -22.743217 0.000000 5.449566
v 22.743221 0.000000 -5.449563
v -22.743217 33.274330 5.449566
v 22.743221 33.274330 -5.449563
v 0.000001 0.000000 0.000002
v 0.000001 33.274330 0.000002
v -14.122581 0.000000 -18.641470
v 14.122581 0.000000 18.641470
v -14.122581 33.274330 -18.641470
v 14.122581 33.274330 18.641470
v 0.000001 0.000000 0.000000
v 0.000001 33.274330 0.000000
vt 0.532260 0.352780
vt 1.000000 0.352780
vt 0.532260 0.685523
vt 1.000000 0.685523
vt 0.766130 0.352780
vt 0.766130 0.685523
vt 0.766130 0.352780
vt 0.766130 0.685523
vt 0.532260 0.685523
vt 0.532260 0.352780
vt 1.000000 0.685523
vt 1.000000 0.352780
vt 0.766130 0.352780
vt 0.766130 0.685523
vt 0.532260 0.685523
vt 0.532260 0.352780
vt 1.000000 0.685523
vt 1.000000 0.352780
vn 0.948103 0.000000 0.317963
vn 0.948103 0.000000 0.317963
vn 0.948103 0.000000 0.317963
vn 0.948103 0.000000 0.317963
vn 0.948103 0.000000 0.317963
vn 0.948103 0.000000 0.317963
vn 0.233017 0.000000 0.972473
vn 0.233017 0.000000 0.972473
vn 0.233017 0.000000 0.972473
vn 0.233017 0.000000 0.972473
vn 0.233017 0.000000 0.972473
vn 0.233017 0.000000 0.972473
vn -0.797087 0.000000 0.603865
vn -0.797087 0.000000 0.603865
vn -0.797087 0.000000 0.603865
vn -0.797087 0.000000 0.603865
vn -0.797087 0.000000 0.603865
vn -0.797087 0.000000 0.603865
s 1
g Grass2
usemtl lambert2SG
f 5/5/1 6/6/2 3/3/3 1/1/4
f 4/4/5 6/6/2 5/5/1 2/2/6
s 2
f 11/7/7 12/8/8 9/9/9 7/10/10
f 10/11/11 12/8/8 11/7/7 8/12/12
s 3
f 17/13/13 18/14/14 15/15/15 13/16/16
f 16/17/17 18/14/14 17/13/13 14/18/18
