# This file uses meters as units for non-parametric coordinates.

mtllib grass4.mtl
g default
v -23.627007 64.701500 0.000000
v -23.627007 0.000000 0.000000
v 22.536621 64.701500 0.000000
v -23.627007 34.703232 0.000000
v 22.536621 34.703232 0.000000
v 14.532587 0.000000 0.000000
v -0.545191 64.701500 0.000000
v -0.545191 34.703232 0.000000
v 0.000002 0.000000 0.000000
v -4.600074 64.701500 -23.174871
v -4.600074 0.000000 -23.174871
v 4.387781 64.701500 22.105354
v -4.600074 34.703232 -23.174871
v 4.387781 34.703232 22.105354
v 2.829430 0.000000 14.254487
v -0.106147 64.701500 -0.534760
v -0.106147 34.703232 -0.534760
v 0.000000 0.000000 0.000001
vt 0.000000 1.000000
vt 0.000000 0.352985
vt 0.578432 1.000000
vt 0.000000 0.700017
vt 0.578432 0.700017
vt 0.478141 0.352985
vt 0.289216 1.000000
vt 0.289216 0.700017
vt 0.296047 0.352985
vt 0.289216 1.000000
vt 0.289216 0.700017
vt 0.578432 0.700017
vt 0.578432 1.000000
vt 0.296047 0.352985
vt 0.478141 0.352985
vt 0.000000 0.700017
vt 0.000000 1.000000
vt 0.000000 0.352985
vn 0.000000 -0.000000 1.000000
vn 0.000000 -0.000000 1.000000
vn 0.000000 -0.000000 1.000000
vn 0.000000 -0.000000 1.000000
vn 0.000000 -0.000000 1.000000
vn 0.000000 -0.000000 1.000000
vn 0.000000 -0.000000 1.000000
vn 0.000000 -0.000000 1.000000
vn 0.000000 -0.000000 1.000000
vn -0.980864 0.000000 0.194696
vn -0.980864 0.000000 0.194696
vn -0.980864 0.000000 0.194696
vn -0.980864 0.000000 0.194696
vn -0.980864 0.000000 0.194696
vn -0.980864 0.000000 0.194696
vn -0.980864 0.000000 0.194696
vn -0.980864 0.000000 0.194696
vn -0.980864 0.000000 0.194696
s 1
g Grass4
usemtl lambert2SG
f 7/7/1 8/8/2 5/5/3 3/3/4
f 8/8/2 9/9/5 6/6/6 5/5/3
f 4/4/7 8/8/2 7/7/1 1/1/8
f 2/2/9 9/9/5 8/8/2 4/4/7
s 2
f 16/10/10 17/11/11 14/12/12 12/13/13
f 17/11/11 18/14/14 15/15/15 14/12/12
f 13/16/16 17/11/11 16/10/10 10/17/17
f 11/18/18 18/14/14 17/11/11 13/16/16
