# This file uses meters as units for non-parametric coordinates.

mtllib plant1.mtl
g default
v 4.309572 0.584133 -1.139820
v -4.436852 -0.601384 1.173481
v 6.317286 5.681349 9.063431
v -2.429136 4.495834 11.376728
v 2.007715 5.097218 10.203251
v 0.000002 0.000000 -0.000004
v 4.472080 4.159177 1.306747
v 0.162508 3.575044 2.446560
v -4.274343 2.973660 3.620045
v 5.230207 6.333964 5.287693
v 0.920633 5.749838 6.427517
v -3.516218 5.148454 7.600998
v -2.099783 0.000001 3.975388
v 2.161798 0.000000 -4.092800
v -12.116688 2.405602 -1.315498
v -7.855108 2.405602 -9.383686
v -10.016907 2.405602 -5.290888
v 0.000000 0.000000 0.000000
v -4.952354 2.895803 2.468672
v -2.852568 2.895802 -1.506714
v -0.690771 2.895802 -5.599514
v -8.896235 4.017741 0.385534
v -6.796457 4.017745 -3.589859
v -4.634657 4.017745 -7.682657
v -3.617697 0.105475 -2.667194
v 3.724548 -0.108590 2.745968
v 3.089584 3.011200 -11.649837
v 10.431829 2.797136 -6.236675
v 6.707285 2.905725 -8.982647
v 0.000002 0.000000 0.000000
v -1.724211 3.140909 -5.115429
v 1.893490 3.035434 -2.448231
v 5.618036 2.926845 0.297733
v 0.915287 4.459537 -8.643417
v 4.532991 4.354067 -5.976227
v 8.257536 4.245477 -3.230259
vt 0.928308 0.222767
vt 0.771264 0.222767
vt 0.928308 0.078060
vt 0.771264 0.078060
vt 0.850929 0.078060
vt 0.850929 0.222767
vt 0.928308 0.171569
vt 0.850929 0.171569
vt 0.771264 0.171569
vt 0.928308 0.127398
vt 0.850929 0.127398
vt 0.771264 0.127398
vt 0.850929 0.078060
vt 0.850929 0.127398
vt 0.771264 0.127398
vt 0.771264 0.078060
vt 0.928308 0.127398
vt 0.928308 0.078060
vt 0.928308 0.222767
vt 0.850929 0.222767
vt 0.850929 0.171569
vt 0.928308 0.171569
vt 0.771264 0.171569
vt 0.771264 0.222767
vt 0.850929 0.078060
vt 0.850929 0.127398
vt 0.771264 0.127398
vt 0.771264 0.078060
vt 0.928308 0.127398
vt 0.928308 0.078060
vt 0.928308 0.222767
vt 0.850929 0.222767
vt 0.850929 0.171569
vt 0.928308 0.171569
vt 0.771264 0.171569
vt 0.771264 0.222767
vn -0.081626 0.977891 0.192525
vn -0.171699 0.973629 -0.150220
vn -0.171700 0.973629 -0.150220
vn -0.081626 0.977891 0.192526
vn -0.171699 0.973629 -0.150221
vn -0.081625 0.977891 0.192525
vn -0.282402 0.550481 -0.785633
vn -0.282402 0.550481 -0.785633
vn -0.264364 0.737297 -0.621695
vn -0.264364 0.737297 -0.621695
vn -0.264365 0.737297 -0.621695
vn -0.282403 0.550481 -0.785633
vn -0.357903 0.914422 -0.189043
vn -0.053400 0.998175 -0.028205
vn -0.053399 0.998175 -0.028205
vn -0.357904 0.914422 -0.189043
vn -0.053399 0.998175 -0.028205
vn -0.357903 0.914422 -0.189042
vn 0.590659 0.744169 0.311984
vn 0.590659 0.744169 0.311984
vn 0.409618 0.886229 0.216358
vn 0.409617 0.886230 0.216358
vn 0.409618 0.886229 0.216358
vn 0.590660 0.744169 0.311984
vn 0.233437 0.931246 -0.279801
vn 0.028366 0.999597 0.001054
vn 0.028366 0.999597 0.001055
vn 0.233438 0.931246 -0.279801
vn 0.028365 0.999597 0.001054
vn 0.233436 0.931246 -0.279801
vn -0.402149 0.713560 0.573680
vn -0.402149 0.713560 0.573680
vn -0.281663 0.864535 0.416227
vn -0.281663 0.864535 0.416227
vn -0.281663 0.864535 0.416227
vn -0.402148 0.713560 0.573680
s 1
g Plant2
usemtl lambert2SG
f 5/5/1 11/11/2 12/12/3 4/4/4
f 10/10/5 11/11/2 5/5/1 3/3/6
f 1/1/7 6/6/8 8/8/9 7/7/10
f 9/9/11 8/8/9 6/6/8 2/2/12
f 7/7/10 8/8/9 11/11/2 10/10/5
f 12/12/3 11/11/2 8/8/9 9/9/11
s 3
f 17/13/13 23/14/14 24/15/15 16/16/16
f 22/17/17 23/14/14 17/13/13 15/18/18
f 13/19/19 18/20/20 20/21/21 19/22/22
f 21/23/23 20/21/21 18/20/20 14/24/24
f 19/22/22 20/21/21 23/14/14 22/17/17
f 24/15/15 23/14/14 20/21/21 21/23/23
s 5
f 29/25/25 35/26/26 36/27/27 28/28/28
f 34/29/29 35/26/26 29/25/25 27/30/30
f 25/31/31 30/32/32 32/33/33 31/34/34
f 33/35/35 32/33/33 30/32/32 26/36/36
f 31/34/34 32/33/33 35/26/26 34/29/29
f 36/27/27 35/26/26 32/33/33 33/35/35
