# This file uses centimeters as units for non-parametric coordinates.

mtllib Enemy_01_Mask02.mtl
g default
v -16.574526 53.614956 17.778158
v -15.319659 55.889267 22.101330
v -19.720266 55.029362 19.347219
v -11.354122 46.899448 21.240782
v -12.872782 47.658764 23.907642
v -10.810799 53.076717 20.448858
v -14.472157 54.474861 21.122030
v -19.248501 56.421623 24.775759
v -18.143473 60.890060 17.129484
v -18.143473 60.890060 24.775759
v -14.170337 60.881729 19.784740
v -14.997731 59.475655 15.560423
v -12.251321 54.222713 23.416309
v -0.253023 46.899448 26.468519
v -13.147407 60.097500 18.805449
v -15.757461 56.829487 24.775759
v -9.234004 58.937416 18.231123
v -0.509639 53.076717 24.662062
v -10.596389 59.839649 21.476149
v -15.038728 61.260422 24.775759
v -16.396885 58.201824 30.856798
v -18.143473 60.890060 29.455442
v -18.835865 58.215881 30.856783
v -0.270537 47.689304 28.874836
v -0.253023 58.931965 22.115889
v -8.292094 52.883762 24.467796
v -6.323455 54.519760 24.729893
v -8.756826 54.303307 23.922073
v -7.075409 52.089115 25.113630
v -15.648493 61.511906 29.455458
v -8.292094 55.805527 23.684912
v -5.571503 52.222893 25.612890
v -0.562495 54.290253 28.303473
v -7.075408 56.816628 23.846897
v -4.354817 53.233994 25.774874
v -18.143473 62.787167 33.744106
v -5.571503 56.950405 24.346157
v -3.890085 54.736214 25.537712
v -16.396885 62.143463 36.248051
v -4.674963 53.475086 26.674643
v -4.354817 56.155758 24.991991
v -18.835865 62.157524 36.248035
v 10.848082 46.899448 21.240782
v -15.648493 63.409012 33.744122
v 12.331715 47.719845 23.908909
v -0.264141 59.809605 25.376890
v 10.304756 53.076717 20.448866
v -17.900284 70.617393 37.500626
v 11.716647 54.228661 23.432934
v 8.727960 58.937416 18.231123
v 4.355045 53.233994 25.774874
v 5.571731 52.222893 25.612888
v 6.323684 54.519760 24.729893
v 3.890313 54.736214 25.537712
v 7.075637 52.089115 25.113628
v -17.359871 74.399170 36.432613
v -16.396885 70.603333 37.500641
v 4.355045 56.155758 24.991991
v 8.292322 52.883762 24.467794
v 10.068109 59.790462 21.508101
v 5.571731 56.950405 24.346157
v 8.757055 54.303307 23.922073
v 8.433898 52.990379 24.865690
v 7.075637 56.816628 23.846897
v 8.292322 55.805527 23.684912
v 13.957239 54.503880 21.187239
v 16.088242 53.641254 17.826750
v 8.939191 54.440468 24.433964
v 12.637609 60.076900 18.885984
v 14.511445 59.501953 15.609007
v -15.648493 75.021011 36.432629
v 14.794439 55.924282 22.181652
v 19.223682 55.061657 19.410933
v 13.649559 60.867126 19.880398
v 17.646885 60.922356 17.193190
v 18.751917 56.453918 24.775759
v 14.518079 61.245819 24.775759
v 15.232241 56.864502 24.775759
v 17.646885 60.922356 24.775759
v 15.871665 58.236839 30.856798
v 15.128033 61.497303 29.455458
v 17.646885 60.922356 29.455442
v 18.339281 58.248177 30.856783
v 15.128033 63.394409 33.744122
v 17.646885 62.819462 33.744106
v 15.871665 62.178482 36.248051
v 18.339281 62.189819 36.248035
v 15.871665 70.638351 37.500641
v 16.863283 74.431465 36.432613
v 17.403698 70.649689 37.500626
v 15.128033 75.006409 36.432629
v -8.521267 53.056347 25.111883
v -7.290907 52.251400 25.719286
v -8.474682 55.943027 24.198072
v -9.015405 54.498035 24.648806
v -5.821750 52.411346 26.316206
v -7.223240 56.927956 24.262377
v -5.739089 57.076611 24.817156
v -4.589123 56.332207 25.650505
v -4.212590 54.979084 26.444111
v 4.563642 53.391083 26.361132
v 5.714604 52.330486 26.014435
v 7.192912 52.177429 25.443226
v 4.466235 56.239491 25.304487
v 4.102224 54.895798 26.133287
v 5.614985 56.982979 24.467722
v 8.380702 55.872082 23.933302
v 7.116491 56.847393 23.961716
v -8.944109 54.241821 24.799072
v -4.478821 54.267624 26.666035
v 4.348793 54.265617 26.355404
v 8.885659 54.242863 24.555849
vt 0.759603 0.683637
vt 0.747223 0.892497
vt 0.794829 0.902084
vt 0.788019 0.667890
vt 0.880418 0.936363
vt 0.138131 0.282163
vt 0.125820 0.345665
vt 0.125869 0.471843
vt 0.684425 0.890860
vt 0.705052 0.692358
vt 0.670101 0.810483
vt 0.768769 0.815946
vt 0.813381 0.816584
vt 0.779235 0.765186
vt 0.812436 0.770483
vt 0.367171 0.300986
vt 0.367188 0.345573
vt 0.174465 0.665370
vt 0.159778 0.598969
vt 0.685517 0.762788
vt 0.367126 0.184428
vt 0.598570 0.706328
vt 0.590673 0.869420
vt 0.596967 0.814843
vt 0.367298 0.632231
vt 0.210469 0.454300
vt 0.240248 0.482467
vt 0.201586 0.478426
vt 0.231200 0.441367
vt 0.597941 0.766680
vt 0.208417 0.504513
vt 0.254699 0.443464
vt 0.367234 0.466942
vt 0.288752 0.466973
vt 0.283968 0.452777
vt 0.259997 0.431599
vt 0.229158 0.431611
vt 0.202349 0.446841
vt 0.191638 0.471818
vt 0.229425 0.521749
vt 0.367275 0.572786
vt 0.272049 0.459252
vt 0.516179 0.812100
vt 0.497029 0.852235
vt 0.254867 0.521739
vt 0.278446 0.482452
vt 0.504092 0.718923
vt 0.273447 0.505912
vt 0.597833 0.300897
vt 0.649250 0.090740
vt 0.510845 0.766182
vt 0.604102 0.345482
vt 0.190405 0.476292
vt 0.200986 0.508929
vt 0.227471 0.529280
vt 0.258432 0.529269
vt 0.283629 0.511125
vt 0.292282 0.482447
vt 0.779319 0.051225
vt 0.604154 0.480864
vt 0.368900 0.827564
vt 0.307413 0.734888
vt 0.545578 0.475887
vt 0.535261 0.452031
vt 0.509591 0.436144
vt 0.479489 0.436155
vt 0.455234 0.455218
vt 0.449625 0.466911
vt 0.373505 0.730886
vt 0.465511 0.460144
vt 0.483254 0.443372
vt 0.496256 0.481925
vt 0.457801 0.481940
vt 0.507347 0.443362
vt 0.307433 0.764589
vt 0.461579 0.505985
vt 0.527563 0.456515
vt 0.565566 0.598933
vt 0.480590 0.523340
vt 0.535230 0.481910
vt 0.546324 0.480552
vt 0.507478 0.523330
vt 0.528897 0.505937
vt 0.689919 0.158615
vt 0.933141 0.141049
vt 0.534931 0.511416
vt 0.825525 0.129243
vt 0.779000 0.141905
vt 0.638334 0.213517
vt 0.707364 0.210262
vt 0.835528 0.163468
vt 0.784238 0.183304
vt 0.716637 0.274913
vt 0.655211 0.272309
vt 0.848542 0.258389
vt 0.801160 0.280409
vt 0.703730 0.375484
vt 0.747929 0.368235
vt 0.853566 0.349694
vt 0.803814 0.356146
vt 0.862253 0.439773
vt 0.733092 0.475255
vt 0.814075 0.439274
vt 0.774346 0.462732
vt 0.786874 0.603174
vt 0.881895 0.649879
vt 0.912770 0.648173
vt 0.811143 0.592783
vt 0.454021 0.511705
vt 0.445591 0.482367
vt 0.478613 0.529763
vt 0.508847 0.529751
vt 0.844315 0.066742
vt 0.552784 0.665417
vt 0.065058 0.459941
vt 0.884304 0.803936
vt 0.868084 0.744189
vt 0.839903 0.988533
vt 0.581848 0.184346
vt 0.665132 0.345458
vt 0.161133 0.165053
vt 0.065015 0.345688
vt 0.367084 0.075869
vt 0.557548 0.058224
vt 0.192484 0.048327
vt 0.665180 0.469865
vt 0.947152 0.086704
vt 0.852846 0.643463
vt 0.936502 0.585718
vt 0.910744 0.579417
vt 0.911211 0.443191
vt 0.914877 0.343570
vt 0.918012 0.230228
vt 0.920929 0.173145
vt 0.316726 0.791628
vt 0.642230 0.167244
vt 0.361112 0.851315
vt 0.365504 0.707090
vt 0.599251 0.135174
vt 0.488629 0.892452
vt 0.587678 0.911898
vt 0.692339 0.948853
vt 0.753795 0.959594
vt 0.838518 0.648022
vt 0.799432 0.950194
vn -0.258462 -0.822001 0.507456
vn -0.258462 -0.822001 0.507456
vn -0.268185 -0.850430 0.452599
vn -0.276977 -0.875875 0.395129
vn -0.880239 0.032791 -0.473397
vn -0.880239 0.032791 -0.473397
vn -0.880239 0.032791 -0.473397
vn -0.880239 0.032791 -0.473397
vn -0.286816 -0.903893 0.317356
vn -0.286816 -0.903893 0.317356
vn 0.057831 -0.959434 0.275937
vn 0.057831 -0.959434 0.275937
vn 0.057831 -0.959434 0.275937
vn 0.057831 -0.959434 0.275937
vn -0.967459 0.252900 0.007978
vn -0.967459 0.252900 0.007978
vn -0.967459 0.252900 0.007978
vn -0.967460 0.252900 0.007978
vn 0.254894 0.915149 -0.312300
vn 0.260283 0.899690 -0.350444
vn 0.260283 0.899690 -0.350444
vn 0.249783 0.927461 -0.278252
vn -0.110394 -0.959402 0.259541
vn -0.110394 -0.959402 0.259541
vn 0.003702 -0.963895 0.266255
vn 0.002736 -0.963910 0.266213
vn 0.771067 0.095093 0.629613
vn 0.771067 0.095093 0.629613
vn 0.771067 0.095093 0.629613
vn 0.771067 0.095093 0.629613
vn 0.140570 0.959950 -0.242355
vn 0.133205 0.960966 -0.242488
vn -0.038855 0.998713 -0.032597
vn -0.038855 0.998713 -0.032597
vn -0.038855 0.998713 -0.032597
vn -0.038855 0.998713 -0.032597
vn 0.395622 -0.197807 -0.896859
vn 0.395622 -0.197807 -0.896859
vn 0.009997 -0.223469 -0.974660
vn -0.010628 -0.223865 -0.974562
vn -0.634242 0.415154 0.652215
vn -0.400981 0.252456 0.880613
vn -0.414018 0.432894 0.800745
vn -0.634242 0.415154 0.652215
vn 0.970829 -0.145625 0.190485
vn 0.970829 -0.145625 0.190485
vn 0.970829 -0.145625 0.190485
vn 0.970829 -0.145625 0.190485
vn 0.064114 -0.965453 0.252568
vn 0.064114 -0.965453 0.252568
vn 0.064114 -0.965453 0.252568
vn 0.064114 -0.965453 0.252568
vn -0.969917 0.243411 -0.003394
vn -0.969917 0.243411 -0.003394
vn -0.969917 0.243411 -0.003394
vn -0.969917 0.243411 -0.003394
vn 0.353364 -0.404538 -0.843494
vn 0.353473 -0.404170 -0.843625
vn -0.008114 -0.419516 -0.907712
vn 0.009147 -0.419849 -0.907548
vn -0.325024 0.244766 0.913482
vn -0.325025 0.244767 0.913481
vn -0.325024 0.244766 0.913482
vn -0.325025 0.244767 0.913481
vn 0.977418 -0.160326 0.137660
vn 0.977418 -0.160326 0.137660
vn 0.977418 -0.160326 0.137660
vn 0.977418 -0.160326 0.137660
vn -0.325026 0.244767 0.913481
vn -0.174346 0.983959 -0.037797
vn -0.174346 0.983959 -0.037797
vn -0.174346 0.983959 -0.037797
vn -0.174346 0.983959 -0.037797
vn -0.325026 0.244767 0.913481
vn -0.374035 0.081985 0.923784
vn 0.008531 0.097984 0.995151
vn -0.010754 0.242159 0.970177
vn -0.364147 0.213491 0.906542
vn -0.374035 0.081985 0.923784
vn -0.374035 0.081985 0.923784
vn -0.374035 0.081985 0.923784
vn -0.374035 0.081985 0.923784
vn -0.366133 0.193016 0.910325
vn -0.325027 0.244767 0.913480
vn 0.002536 0.970525 -0.240989
vn 0.002904 0.970521 -0.241000
vn -0.325026 0.244767 0.913481
vn -0.961514 0.235270 -0.141910
vn -0.961514 0.235270 -0.141910
vn -0.961514 0.235270 -0.141910
vn -0.961514 0.235270 -0.141910
vn -0.325027 0.244766 0.913481
vn -0.325024 0.244766 0.913482
vn -0.004657 -0.807249 0.590193
vn -0.004657 -0.807249 0.590193
vn -0.004657 -0.807249 0.590193
vn -0.004657 -0.807249 0.590193
vn -0.555872 0.732004 -0.393925
vn -0.555872 0.732004 -0.393925
vn -0.555872 0.732004 -0.393925
vn -0.555872 0.732004 -0.393925
vn -0.325024 0.244766 0.913482
vn -0.386497 -0.213719 -0.897187
vn -0.386497 -0.213719 -0.897187
vn 0.969641 -0.209392 0.126301
vn 0.969641 -0.209392 0.126301
vn 0.969641 -0.209392 0.126301
vn 0.969641 -0.209392 0.126301
vn 0.117122 -0.955858 0.269478
vn 0.117122 -0.955858 0.269478
vn 0.010043 0.445360 0.895295
vn -0.331760 0.431940 0.838667
vn -0.331760 0.431940 0.838667
vn -0.331760 0.431940 0.838667
vn -0.331760 0.431940 0.838667
vn -0.331760 0.431940 0.838667
vn -0.331760 0.431940 0.838667
vn -0.346608 -0.396442 -0.850116
vn -0.346792 -0.395717 -0.850378
vn 0.884583 0.034287 -0.465122
vn 0.884583 0.034287 -0.465121
vn 0.884583 0.034287 -0.465121
vn 0.884583 0.034287 -0.465121
vn -0.974807 0.120365 -0.187787
vn -0.974807 0.120365 -0.187787
vn -0.974807 0.120365 -0.187787
vn -0.974807 0.120365 -0.187787
vn 0.365801 0.099518 0.925357
vn 0.391706 0.252245 0.884838
vn 0.358267 0.198331 0.912310
vn 0.365801 0.099518 0.925357
vn 0.365801 0.099518 0.925357
vn 0.365801 0.099518 0.925357
vn 0.365800 0.099518 0.925357
vn 0.356563 0.215588 0.909057
vn -0.001054 -0.146409 0.989224
vn -0.001054 -0.146409 0.989224
vn -0.001054 -0.146409 0.989224
vn -0.001054 -0.146409 0.989224
vn 0.325025 0.244766 0.913481
vn 0.325026 0.244766 0.913481
vn 0.325025 0.244766 0.913481
vn 0.325023 0.244766 0.913482
vn 0.325027 0.244766 0.913481
vn -0.067170 0.227203 -0.971528
vn -0.067170 0.227203 -0.971528
vn -0.067170 0.227203 -0.971528
vn -0.067170 0.227203 -0.971528
vn 0.950926 -0.059616 0.303621
vn 0.950926 -0.059616 0.303621
vn 0.950926 -0.059616 0.303621
vn 0.950926 -0.059616 0.303621
vn 0.325025 0.244766 0.913482
vn 0.325025 0.244765 0.913482
vn -0.127850 0.963661 -0.234546
vn -0.135460 0.962754 -0.233998
vn 0.325027 0.244766 0.913481
vn 0.325023 0.244766 0.913482
vn -0.899419 0.378494 0.218604
vn -0.899419 0.378494 0.218604
vn -0.899419 0.378494 0.218604
vn -0.899419 0.378494 0.218604
vn -0.899419 0.378494 0.218604
vn 0.325027 0.244767 0.913480
vn 0.325025 0.244767 0.913481
vn 0.288192 -0.902764 0.319317
vn 0.268499 -0.850139 0.452960
vn 0.277650 -0.874936 0.396733
vn 0.288192 -0.902764 0.319317
vn -0.899417 -0.218486 0.378567
vn -0.899417 -0.218486 0.378567
vn -0.899417 -0.218486 0.378567
vn -0.899417 -0.218486 0.378567
vn -0.248587 0.931223 -0.266511
vn -0.257679 0.917831 -0.301972
vn 0.258273 -0.821951 0.507633
vn 0.258273 -0.821951 0.507633
vn 0.406422 0.416191 0.813391
vn 0.621893 0.417282 0.662665
vn 0.621893 0.417282 0.662665
vn -0.777406 0.090253 0.622491
vn -0.777406 0.090253 0.622491
vn -0.777406 0.090253 0.622491
vn -0.777406 0.090253 0.622491
vn -0.048974 0.258993 0.964637
vn -0.048974 0.258993 0.964637
vn -0.048974 0.258993 0.964637
vn -0.048974 0.258993 0.964637
vn -0.267582 0.900833 -0.341906
vn -0.267582 0.900833 -0.341906
vn -0.055680 -0.958214 0.280580
vn -0.055680 -0.958214 0.280580
vn -0.055680 -0.958214 0.280580
vn -0.055680 -0.958214 0.280580
vn -0.970020 -0.145328 0.194784
vn -0.970020 -0.145328 0.194784
vn -0.970020 -0.145328 0.194784
vn -0.970020 -0.145328 0.194784
vn 0.967455 0.252917 0.008055
vn 0.967455 0.252917 0.008055
vn 0.967455 0.252917 0.008055
vn 0.967455 0.252917 0.008055
vn 0.025505 0.999159 -0.032099
vn 0.025505 0.999159 -0.032099
vn 0.025505 0.999159 -0.032099
vn 0.025505 0.999159 -0.032099
vn -0.064377 -0.965435 0.252568
vn -0.064377 -0.965435 0.252568
vn -0.064377 -0.965435 0.252568
vn -0.064377 -0.965435 0.252568
vn -0.977263 -0.161162 0.137785
vn -0.977263 -0.161162 0.137785
vn -0.977263 -0.161162 0.137785
vn -0.977263 -0.161162 0.137785
vn -0.503699 -0.183889 -0.844081
vn -0.503699 -0.183889 -0.844081
vn -0.503699 -0.183889 -0.844081
vn -0.503699 -0.183889 -0.844081
vn 0.156995 0.986915 -0.036749
vn 0.156995 0.986915 -0.036749
vn 0.156995 0.986915 -0.036749
vn 0.156995 0.986915 -0.036749
vn 0.969917 0.243412 -0.003394
vn 0.969917 0.243412 -0.003394
vn 0.969917 0.243412 -0.003394
vn 0.969917 0.243412 -0.003394
vn -0.969171 -0.210980 0.127259
vn -0.969171 -0.210980 0.127259
vn -0.969171 -0.210980 0.127259
vn -0.969171 -0.210980 0.127259
vn 0.350986 -0.412526 -0.840613
vn 0.350986 -0.412526 -0.840613
vn 0.961514 0.235271 -0.141911
vn 0.961514 0.235271 -0.141911
vn 0.961514 0.235272 -0.141911
vn 0.961514 0.235271 -0.141911
vn -0.951127 -0.059497 0.303014
vn -0.951127 -0.059497 0.303014
vn -0.951127 -0.059497 0.303014
vn -0.951127 -0.059497 0.303014
vn 0.061379 0.227102 -0.971935
vn 0.061379 0.227102 -0.971935
vn 0.061379 0.227102 -0.971935
vn 0.061379 0.227102 -0.971935
vn 0.974807 0.120365 -0.187788
vn 0.974807 0.120365 -0.187788
vn 0.974807 0.120365 -0.187788
vn 0.974807 0.120365 -0.187788
vn 0.000838 -0.146420 0.989222
vn 0.000838 -0.146420 0.989222
vn 0.000838 -0.146420 0.989222
vn 0.000838 -0.146420 0.989222
vn 0.555871 0.830897 -0.024851
vn 0.555871 0.830897 -0.024851
vn 0.555871 0.830897 -0.024851
vn 0.555871 0.830897 -0.024851
vn 0.899418 -0.218483 0.378566
vn 0.899418 -0.218483 0.378566
vn 0.899418 -0.218483 0.378566
vn 0.899418 -0.218483 0.378566
vn 0.044837 0.259880 0.964599
vn 0.044837 0.259880 0.964599
vn 0.044837 0.259880 0.964599
vn 0.044837 0.259880 0.964599
vn -0.000001 0.965926 -0.258817
vn -0.000001 0.965926 -0.258817
vn -0.000001 0.965926 -0.258817
vn -0.000001 0.965926 -0.258817
vn 0.555871 -0.732002 0.393929
vn 0.555871 -0.732002 0.393929
vn 0.555871 -0.732002 0.393929
vn 0.555871 -0.732002 0.393929
vn 0.000000 -0.965925 0.258821
vn 0.000000 -0.965925 0.258821
vn 0.000000 -0.965925 0.258821
vn 0.000000 -0.965925 0.258821
vn -0.555871 -0.830897 0.024854
vn -0.555871 -0.830897 0.024854
vn -0.555871 -0.830897 0.024854
vn -0.555871 -0.830897 0.024854
vn -0.222231 0.891651 -0.394425
vn -0.222231 0.891651 -0.394425
vn -0.222231 0.891651 -0.394425
vn -0.222231 0.891651 -0.394425
vn -0.899420 -0.378492 -0.218603
vn -0.899420 -0.378492 -0.218603
vn -0.899420 -0.378492 -0.218603
vn -0.899420 -0.378492 -0.218603
vn 0.555871 0.732004 -0.393926
vn 0.555871 0.732004 -0.393926
vn 0.555871 0.732004 -0.393926
vn 0.555871 0.732004 -0.393926
vn 0.000002 0.965926 -0.258817
vn 0.000002 0.965926 -0.258817
vn 0.000002 0.965926 -0.258817
vn 0.000002 0.965926 -0.258817
vn 0.899420 -0.378493 -0.218604
vn 0.899420 -0.378493 -0.218604
vn 0.899420 -0.378493 -0.218604
vn 0.899420 -0.378493 -0.218604
vn -0.555870 0.830898 -0.024850
vn -0.555870 0.830898 -0.024850
vn -0.555870 0.830898 -0.024850
vn -0.555870 0.830898 -0.024850
vn 0.555872 -0.830896 0.024867
vn 0.555872 -0.830896 0.024867
vn 0.555872 -0.830896 0.024867
vn 0.555872 -0.830896 0.024867
vn -0.342658 -0.411731 -0.844431
vn -0.342658 -0.411731 -0.844431
vn -0.555872 -0.732006 0.393920
vn -0.555872 -0.732006 0.393920
vn -0.555872 -0.732006 0.393920
vn -0.555872 -0.732006 0.393920
vn 0.507860 -0.181982 -0.841998
vn 0.507860 -0.181982 -0.841998
vn 0.507860 -0.181982 -0.841998
vn 0.507860 -0.181982 -0.841998
vn 0.899419 0.378493 0.218605
vn 0.899419 0.378493 0.218605
vn 0.899419 0.378493 0.218605
vn 0.899419 0.378493 0.218605
vn 0.899419 0.378493 0.218605
vn 0.204339 0.895224 -0.396006
vn 0.204339 0.895224 -0.396006
vn 0.204339 0.895224 -0.396006
vn 0.204339 0.895224 -0.396006
vn 0.003712 -0.807252 0.590196
vn 0.003712 -0.807252 0.590196
vn 0.003712 -0.807252 0.590196
vn 0.003712 -0.807252 0.590196
vn -0.899419 0.218482 -0.378565
vn -0.899419 0.218482 -0.378565
vn -0.899419 0.218482 -0.378565
vn -0.899419 0.218482 -0.378565
vn -0.899419 0.218482 -0.378565
vn 0.899419 0.218482 -0.378566
vn 0.899419 0.218482 -0.378566
vn 0.899419 0.218482 -0.378566
vn 0.899419 0.218482 -0.378566
vn 0.899419 0.218482 -0.378566
vn -0.000000 -0.965919 0.258845
vn -0.000000 -0.965919 0.258845
vn -0.000000 -0.965919 0.258845
vn -0.000000 -0.965919 0.258845
vn 0.328857 0.409507 0.850974
vn 0.328857 0.409507 0.850974
vn 0.328857 0.409507 0.850974
vn 0.328857 0.409507 0.850974
vn 0.328857 0.409507 0.850974
vn 0.328857 0.409507 0.850974
s 1
g Mask_02
usemtl initialShadingGroup
f 2/143/1 3/2/2 1/3/3 7/145/4
s off
f 6/115/5 4/122/6 5/7/7 13/8/8
s 1
f 7/145/4 1/3/3 6/5/9 13/118/10
s off
f 8/9/11 3/2/12 2/143/13 16/142/14
f 10/11/15 9/12/16 3/2/17 8/9/18
s 2
f 12/13/19 9/12/20 11/14/21 15/15/22
s 3
f 5/7/23 4/6/24 14/16/25 24/17/26
s off
f 2/1/27 7/4/28 15/15/29 11/14/30
s 2
f 17/116/31 12/13/19 15/15/22 19/117/32
s off
f 11/14/33 9/12/34 10/11/35 20/20/36
s 4
f 4/6/37 6/121/38 18/21/39 14/16/40
s 5
f 7/4/41 13/144/42 19/117/43 15/15/44
s off
f 20/20/45 16/10/46 2/1/47 11/14/48
f 8/9/49 16/142/50 21/141/51 23/23/52
f 22/24/53 10/11/54 8/9/55 23/23/56
s 6
f 6/121/57 17/125/58 25/123/59 18/21/60
s 7
f 26/26/61 27/27/62 28/28/63
f 29/29/64 27/27/62 26/26/61
s off
f 16/10/65 20/20/66 30/30/67 21/22/68
s 7
f 28/28/63 27/27/62 31/31/69
s off
f 30/30/70 20/20/71 10/11/72 22/24/73
s 7
f 32/32/74 27/27/62 29/29/64
s 5
f 5/7/75 24/17/76 33/33/77 110/34/78 40/35/79 96/36/80 93/37/81 92/38/82 109/39/83 13/8/42
s 7
f 31/31/69 27/27/62 34/40/84
s 2
f 25/25/85 17/18/31 19/19/32 46/41/86
s 7
f 35/42/87 27/27/62 32/32/74
s off
f 36/43/88 22/24/89 23/23/90 42/44/91
s 7
f 34/40/84 27/27/62 37/45/92
f 38/46/93 27/27/62 35/42/87
s off
f 23/23/94 21/141/95 39/140/96 42/44/97
f 40/35/98 35/42/99 32/32/100 96/36/101
s 7
f 37/45/92 27/27/62 41/48/102
f 41/48/102 27/27/62 38/46/93
s 4
f 43/49/103 14/16/40 18/21/39 47/119/104
s off
f 21/22/105 30/30/106 44/51/107 39/47/108
s 3
f 45/52/109 24/17/26 14/16/25 43/49/110
s 5
f 33/33/77 46/41/111 19/19/43 13/8/42 109/39/83 95/53/112 94/54/113 97/55/114 98/56/115 99/57/116 100/58/117 110/34/78
s 6
f 47/119/118 18/21/60 25/123/59 50/124/119
s off
f 45/52/120 43/120/121 47/126/122 49/60/123
f 36/43/124 42/44/125 48/61/126 56/135/127
s 5
f 24/17/76 45/52/128 49/60/129 112/63/130 63/64/131 103/65/132 102/66/133 101/67/134 111/68/135 33/33/77
s off
f 48/61/136 42/44/137 39/140/138 57/137/139
s 9
f 51/70/140 52/71/141 53/72/142
f 54/73/143 51/70/140 53/72/142
f 52/71/141 55/74/144 53/72/142
s off
f 44/51/145 36/43/146 56/135/147 71/75/148
f 57/69/149 39/47/150 44/51/151 71/75/152
s 9
f 58/76/153 54/73/143 53/72/142
f 55/74/144 59/77/154 53/72/142
s 2
f 25/25/85 46/41/86 60/78/155 50/114/156
s 9
f 61/79/157 58/76/153 53/72/142
f 59/77/154 62/80/158 53/72/142
s off
f 59/77/159 63/64/160 112/63/161 68/81/162 62/80/163
s 9
f 64/82/164 61/79/157 53/72/142
f 62/80/158 65/83/165 53/72/142
s 10
f 47/50/166 67/84/167 66/136/168 49/139/169
s 9
f 65/83/165 64/82/164 53/72/142
s off
f 62/80/170 68/81/171 107/86/172 65/83/173
s 2
f 69/87/174 70/88/175 50/59/156 60/113/155
s 10
f 72/89/176 66/136/168 67/84/167 73/90/177
s 5
f 60/113/178 49/127/129 66/85/179 69/87/180
s off
f 69/87/181 66/85/182 72/134/183 74/91/184
f 56/62/185 48/138/186 57/69/187 71/75/188
s 2
f 70/88/175 69/87/174 74/91/189 75/92/190
s off
f 72/89/191 73/90/192 76/93/193 78/94/194
f 77/95/195 74/91/196 72/134/197 78/133/198
f 73/90/199 75/92/200 79/96/201 76/93/202
f 79/96/203 75/92/204 74/91/205 77/95/206
f 80/97/207 78/94/208 76/93/209 83/98/210
f 81/99/211 77/95/212 78/133/213 80/132/214
f 12/13/215 1/3/216 3/2/217 9/12/218
f 79/96/219 77/95/220 81/99/221 82/100/222
f 76/93/223 79/96/224 82/100/225 83/98/226
f 84/101/227 81/99/228 80/132/229 86/131/230
s 6
f 17/116/58 6/5/57 1/3/231 12/13/232
s off
f 83/98/233 82/100/234 85/103/235 87/104/236
f 84/101/237 86/131/238 88/130/239 91/106/240
f 89/128/241 85/103/242 84/101/243 91/106/244
f 90/108/245 87/104/246 85/103/247 89/128/248
f 86/102/249 87/104/250 90/108/251 88/105/252
f 92/38/253 93/37/254 29/29/255 26/26/256
f 94/54/257 95/53/258 28/28/259 31/31/260
f 88/130/261 90/129/262 89/107/263 91/106/264
f 93/37/265 96/36/266 32/32/267 29/29/268
f 97/55/269 94/54/270 31/31/271 34/40/272
f 98/56/273 97/55/274 34/40/275 37/45/276
f 99/57/277 98/56/278 37/45/279 41/48/280
f 30/30/281 22/24/282 36/43/283 44/51/284
f 100/58/285 99/57/286 41/48/287 38/46/288
f 101/67/289 102/66/290 52/71/291 51/70/292
f 102/66/293 103/65/294 55/74/295 52/71/296
f 104/109/297 105/110/298 54/73/299 58/76/300
f 103/65/301 63/64/302 59/77/303 55/74/304
f 106/111/305 104/109/306 58/76/307 61/79/308
s 6
f 47/50/118 50/59/119 70/88/309 67/84/310
s off
f 107/86/311 108/112/312 64/82/313 65/83/314
f 67/84/315 70/88/316 75/92/317 73/90/318
f 95/53/319 109/39/320 92/38/321 26/26/322 28/28/323
f 82/100/324 81/99/325 84/101/326 85/103/327
f 80/97/328 83/98/329 87/104/330 86/102/331
f 40/35/332 110/34/333 100/58/334 38/46/335 35/42/336
f 105/110/337 111/68/338 101/67/339 51/70/340 54/73/341
f 108/112/342 106/111/343 61/79/344 64/82/345
s 5
f 46/41/111 33/33/77 111/68/135 105/110/346 104/109/347 106/111/348 108/112/349 107/86/350 68/81/351 112/63/130 49/60/129 60/78/178
