# This file uses centimeters as units for non-parametric coordinates.

mtllib Enemy_01_Mask01.mtl
g default
v -11.354122 46.899448 21.240782
v -12.872782 47.658764 23.907642
v -10.810799 53.076717 20.448858
v -12.251321 54.222713 23.416309
v -0.253023 46.899448 26.468519
v -9.234004 58.937416 18.231123
v -0.509639 53.076717 24.662062
v -10.596389 59.839649 21.476149
v -0.270537 47.689304 28.874836
v -0.253023 58.931965 22.115889
v -8.292094 52.883762 24.467796
v -6.323455 54.519760 24.729893
v -8.756826 54.303307 23.922073
v -7.075409 52.089115 25.113630
v -8.292094 55.805527 23.684912
v -5.571503 52.222893 25.612890
v -0.562495 54.290253 28.303473
v -7.075408 56.816628 23.846897
v -4.354817 53.233994 25.774874
v -5.571503 56.950405 24.346157
v -3.890085 54.736214 25.537712
v -4.674963 53.475086 26.674643
v -4.354817 56.155758 24.991991
v 10.848082 46.899448 21.240782
v 12.331715 47.719845 23.908909
v -0.264141 59.809605 25.376890
v 10.304756 53.076717 20.448866
v 11.716647 54.228661 23.432934
v 8.727960 58.937416 18.231123
v 4.355045 53.233994 25.774874
v 5.571731 52.222893 25.612888
v 6.323684 54.519760 24.729893
v 3.890313 54.736214 25.537712
v 7.075637 52.089115 25.113628
v 4.355045 56.155758 24.991991
v 8.292322 52.883762 24.467794
v 10.068109 59.790462 21.508101
v 5.571731 56.950405 24.346157
v 8.757055 54.303307 23.922073
v 8.433898 52.990379 24.865690
v 7.075637 56.816628 23.846897
v 8.292322 55.805527 23.684912
v 8.939191 54.440468 24.433964
v -8.521267 53.056347 25.111883
v -7.290907 52.251400 25.719286
v -8.474682 55.943027 24.198072
v -9.015405 54.498035 24.648806
v -5.821750 52.411346 26.316206
v -7.223240 56.927956 24.262377
v -5.739089 57.076611 24.817156
v -4.589123 56.332207 25.650505
v -4.212590 54.979084 26.444111
v 4.563642 53.391083 26.361132
v 5.714604 52.330486 26.014435
v 7.192912 52.177429 25.443226
v 4.466235 56.239491 25.304487
v 4.102224 54.895798 26.133287
v 5.614985 56.982979 24.467722
v 8.380702 55.872082 23.933302
v 7.116491 56.847393 23.961716
v -8.944109 54.241821 24.799072
v -4.478821 54.267624 26.666035
v 4.348793 54.265617 26.355404
v 8.885659 54.242863 24.555849
v -16.788540 58.877380 18.226202
v -15.258388 57.159100 16.592453
v -15.999779 62.914238 16.763456
v -13.924695 62.012005 14.374718
v 13.433628 62.012005 14.374718
v 14.767323 57.159100 16.592461
v 16.253866 58.883327 18.242826
v 15.474843 62.865051 16.795408
v 16.428753 61.829594 10.947201
v 17.675154 63.553822 12.597567
v 15.310510 66.682495 8.729458
v 17.021976 67.535538 11.150148
v -18.154922 63.505623 12.480103
v -16.871958 61.787342 10.846354
v -17.493582 67.542488 11.017357
v -15.753716 66.640251 8.628618
vt 0.813130 0.047805
vt 0.112892 0.300931
vt 0.096794 0.366899
vt 0.872657 0.052232
vt 0.366942 0.330172
vt 0.365573 0.376361
vt 0.365124 0.201590
vt 0.717152 0.102291
vt 0.364010 0.687822
vt 0.193218 0.491239
vt 0.226210 0.522023
vt 0.183432 0.517945
vt 0.216130 0.476896
vt 0.191034 0.546793
vt 0.242131 0.479175
vt 0.358822 0.501195
vt 0.279844 0.504796
vt 0.274527 0.489428
vt 0.247975 0.467387
vt 0.213852 0.464760
vt 0.184222 0.483001
vt 0.172412 0.508725
vt 0.214304 0.565949
vt 0.944357 0.131856
vt 0.363697 0.622057
vt 0.261352 0.496612
vt 0.242451 0.565647
vt 0.268470 0.522703
vt 0.262979 0.548229
vt 0.621480 0.312044
vt 0.852824 0.409570
vt 0.633567 0.378015
vt 0.171058 0.515603
vt 0.182821 0.551691
vt 0.212156 0.574350
vt 0.246407 0.573905
vt 0.274252 0.553979
vt 0.283775 0.521800
vt 0.684983 0.544120
vt 0.793337 0.416814
vt 0.563988 0.514545
vt 0.552533 0.488171
vt 0.524106 0.469851
vt 0.490807 0.471491
vt 0.464004 0.491834
vt 0.457826 0.508556
vt 0.474821 0.498475
vt 0.494055 0.481211
vt 0.508235 0.523762
vt 0.466488 0.522669
vt 0.520206 0.479212
vt 0.470629 0.548244
vt 0.542175 0.494431
vt 0.726357 0.499375
vt 0.491295 0.566792
vt 0.550537 0.520289
vt 0.564821 0.519705
vt 0.520484 0.567256
vt 0.543707 0.548078
vt 0.552269 0.553870
vt 0.462759 0.554329
vt 0.453383 0.521886
vt 0.489995 0.574009
vt 0.523445 0.574454
vt 0.843413 0.182155
vt 0.802363 0.164790
vt 0.874647 0.243747
vt 0.730123 0.217989
vt 0.755479 0.635843
vt 0.869570 0.526128
vt 0.829451 0.545474
vt 0.801781 0.608018
vt 0.890174 0.685176
vt 0.907568 0.643994
vt 0.796276 0.755267
vt 0.838585 0.726374
vt 0.769908 0.284899
vt 0.814837 0.297950
vt 0.843841 0.364054
vt 0.699316 0.341111
vt 0.586310 0.650639
vt 0.623756 0.519960
vt 0.572282 0.724213
vt 0.603592 0.182767
vt 0.032457 0.497731
vt 0.172615 0.042143
vt 0.137384 0.651374
vt 0.102239 0.512715
vt 0.576507 0.052458
vt 0.153746 0.724808
vt 0.373666 0.072293
vt 0.693936 0.507682
vt 0.698395 0.374973
vt 0.138134 0.171332
vt 0.032000 0.363485
vt 0.737439 0.375153
vt 0.887721 0.390452
vt 0.922573 0.268648
vt 0.789172 0.325193
vt 0.943485 0.732245
vt 0.863357 0.659499
vt 0.980706 0.697179
vt 0.944239 0.575994
vt 0.951820 0.459201
vt 0.988314 0.173786
vn -0.880239 0.032791 -0.473397
vn -0.880239 0.032791 -0.473397
vn -0.880239 0.032791 -0.473397
vn -0.880239 0.032791 -0.473397
vn -0.110394 -0.959402 0.259541
vn -0.110394 -0.959402 0.259541
vn 0.003702 -0.963895 0.266255
vn 0.002736 -0.963910 0.266213
vn 0.395622 -0.197807 -0.896859
vn 0.395622 -0.197807 -0.896859
vn 0.009997 -0.223469 -0.974660
vn -0.010628 -0.223865 -0.974562
vn 0.354911 -0.399274 -0.845351
vn 0.354911 -0.399274 -0.845351
vn -0.008114 -0.419516 -0.907712
vn 0.009147 -0.419849 -0.907548
vn -0.325024 0.244766 0.913482
vn -0.325026 0.244766 0.913481
vn -0.325026 0.244766 0.913481
vn -0.325025 0.244767 0.913481
vn -0.325026 0.244767 0.913481
vn -0.325027 0.244767 0.913480
vn -0.374035 0.081985 0.923784
vn 0.008531 0.097984 0.995151
vn -0.010754 0.242159 0.970177
vn -0.364147 0.213491 0.906542
vn -0.374035 0.081985 0.923784
vn -0.374035 0.081985 0.923784
vn -0.374035 0.081985 0.923784
vn -0.374035 0.081985 0.923784
vn -0.366133 0.193016 0.910325
vn -0.362834 0.226148 0.903996
vn -0.325027 0.244767 0.913481
vn 0.002536 0.970525 -0.240989
vn 0.099701 0.964908 -0.242925
vn 0.099701 0.964908 -0.242925
vn 0.002904 0.970521 -0.241000
vn -0.325025 0.244767 0.913481
vn -0.325027 0.244766 0.913481
vn -0.325024 0.244766 0.913482
vn -0.555871 0.732004 -0.393925
vn -0.555871 0.732004 -0.393926
vn -0.555871 0.732004 -0.393925
vn -0.555871 0.732004 -0.393926
vn -0.325026 0.244766 0.913481
vn -0.386497 -0.213719 -0.897187
vn -0.386497 -0.213719 -0.897187
vn 0.117122 -0.955858 0.269478
vn 0.117122 -0.955858 0.269478
vn 0.010043 0.445360 0.895296
vn -0.331760 0.431940 0.838667
vn -0.331760 0.431940 0.838667
vn -0.331760 0.431940 0.838667
vn -0.331760 0.431940 0.838667
vn -0.331760 0.431940 0.838667
vn -0.331760 0.431940 0.838667
vn -0.331760 0.431940 0.838667
vn -0.349119 -0.386460 -0.853677
vn -0.349119 -0.386460 -0.853677
vn 0.884583 0.034287 -0.465121
vn 0.884583 0.034287 -0.465121
vn 0.884583 0.034287 -0.465121
vn 0.884583 0.034287 -0.465121
vn 0.365800 0.099518 0.925357
vn 0.355422 0.226525 0.906841
vn 0.358267 0.198331 0.912310
vn 0.365800 0.099518 0.925357
vn 0.365800 0.099518 0.925357
vn 0.365800 0.099518 0.925357
vn 0.365800 0.099518 0.925357
vn 0.356563 0.215588 0.909057
vn 0.325025 0.244766 0.913482
vn 0.325027 0.244766 0.913481
vn 0.325025 0.244766 0.913481
vn 0.325023 0.244766 0.913482
vn 0.325027 0.244766 0.913481
vn 0.325025 0.244766 0.913481
vn 0.325025 0.244765 0.913482
vn -0.094375 0.966968 -0.236784
vn -0.094375 0.966968 -0.236784
vn 0.325027 0.244766 0.913481
vn 0.325024 0.244765 0.913482
vn -0.899419 0.378494 0.218604
vn -0.899419 0.378494 0.218604
vn -0.899419 0.378494 0.218604
vn -0.899419 0.378494 0.218604
vn -0.899419 0.378494 0.218604
vn 0.325027 0.244767 0.913481
vn 0.325025 0.244767 0.913481
vn -0.899418 -0.218485 0.378565
vn -0.899418 -0.218485 0.378565
vn -0.899418 -0.218485 0.378565
vn -0.899418 -0.218485 0.378565
vn 0.555871 0.830897 -0.024851
vn 0.555871 0.830897 -0.024851
vn 0.555871 0.830897 -0.024851
vn 0.555871 0.830897 -0.024851
vn 0.899419 -0.218482 0.378564
vn 0.899419 -0.218482 0.378564
vn 0.899419 -0.218482 0.378564
vn 0.899419 -0.218482 0.378564
vn -0.000001 0.965926 -0.258817
vn -0.000001 0.965926 -0.258817
vn -0.000001 0.965926 -0.258817
vn -0.000001 0.965926 -0.258817
vn 0.555870 -0.732003 0.393929
vn 0.555870 -0.732003 0.393929
vn 0.555870 -0.732003 0.393929
vn 0.555870 -0.732003 0.393929
vn 0.000000 -0.965925 0.258821
vn 0.000000 -0.965925 0.258821
vn 0.000000 -0.965925 0.258821
vn 0.000000 -0.965925 0.258821
vn -0.555870 -0.830898 0.024854
vn -0.555870 -0.830898 0.024854
vn -0.555870 -0.830898 0.024854
vn -0.555870 -0.830898 0.024854
vn -0.899420 -0.378492 -0.218603
vn -0.899420 -0.378492 -0.218603
vn -0.899420 -0.378492 -0.218603
vn -0.899420 -0.378492 -0.218603
vn 0.555871 0.732004 -0.393926
vn 0.555871 0.732004 -0.393926
vn 0.555871 0.732004 -0.393926
vn 0.555871 0.732004 -0.393926
vn 0.000002 0.965926 -0.258817
vn 0.000002 0.965926 -0.258817
vn 0.000002 0.965926 -0.258817
vn 0.000002 0.965926 -0.258817
vn 0.899420 -0.378492 -0.218604
vn 0.899420 -0.378493 -0.218604
vn 0.899420 -0.378493 -0.218604
vn 0.899420 -0.378493 -0.218604
vn -0.555874 0.830895 -0.024850
vn -0.555874 0.830895 -0.024850
vn -0.555874 0.830895 -0.024850
vn -0.555874 0.830895 -0.024850
vn 0.555869 -0.830898 0.024867
vn 0.555869 -0.830898 0.024867
vn 0.555869 -0.830898 0.024867
vn 0.555869 -0.830898 0.024867
vn -0.555875 -0.732004 0.393919
vn -0.555875 -0.732004 0.393919
vn -0.555875 -0.732004 0.393919
vn -0.555875 -0.732004 0.393919
vn 0.899420 0.378492 0.218604
vn 0.899420 0.378492 0.218604
vn 0.899420 0.378492 0.218604
vn 0.899420 0.378492 0.218604
vn 0.899420 0.378492 0.218604
vn -0.899419 0.218482 -0.378565
vn -0.899419 0.218482 -0.378565
vn -0.899419 0.218482 -0.378565
vn -0.899419 0.218482 -0.378565
vn -0.899419 0.218482 -0.378565
vn 0.899419 0.218482 -0.378565
vn 0.899419 0.218482 -0.378565
vn 0.899419 0.218482 -0.378565
vn 0.899419 0.218482 -0.378565
vn 0.899419 0.218482 -0.378565
vn 0.000001 -0.965919 0.258845
vn 0.000001 -0.965919 0.258845
vn 0.000001 -0.965919 0.258845
vn 0.000001 -0.965919 0.258845
vn 0.328857 0.409507 0.850974
vn 0.328857 0.409507 0.850974
vn 0.328857 0.409507 0.850974
vn 0.328857 0.409507 0.850974
vn 0.328857 0.409507 0.850974
vn 0.328857 0.409507 0.850974
vn 0.328857 0.409507 0.850974
vn -0.695952 -0.718085 -0.002316
vn -0.695952 -0.718085 -0.002316
vn -0.781052 -0.616179 -0.101397
vn -0.763902 -0.640416 -0.079503
vn -0.474149 0.397028 0.785845
vn -0.474148 0.397028 0.785845
vn -0.689050 0.363584 0.626910
vn -0.529932 0.391521 0.752252
vn 0.501787 0.864496 0.029274
vn 0.501787 0.864496 0.029274
vn 0.612211 0.771230 0.174364
vn 0.604010 0.780217 0.162581
vn 0.354087 -0.438234 -0.826180
vn 0.354087 -0.438234 -0.826180
vn 0.420299 -0.443727 -0.791489
vn 0.581998 -0.446249 -0.679809
vn -0.353291 -0.438174 -0.826553
vn -0.353291 -0.438174 -0.826553
vn -0.569082 -0.447502 -0.689846
vn -0.415287 -0.443634 -0.794183
vn 0.699592 -0.714518 0.005903
vn 0.699592 -0.714518 0.005903
vn 0.768920 -0.635469 -0.070298
vn 0.786435 -0.610788 -0.091962
vn -0.497142 0.866945 0.035440
vn -0.497142 0.866945 0.035440
vn -0.600835 0.782155 0.165022
vn -0.610885 0.771263 0.178812
vn 0.473218 0.398066 0.785880
vn 0.473218 0.398066 0.785880
vn 0.525319 0.392819 0.754807
vn 0.677920 0.366405 0.637317
vn 0.826669 -0.066070 -0.558797
vn 0.826669 -0.066070 -0.558797
vn 0.826669 -0.066070 -0.558797
vn 0.826669 -0.066070 -0.558797
vn -0.819218 -0.071579 -0.568997
vn -0.819218 -0.071579 -0.568997
vn -0.819218 -0.071579 -0.568997
vn -0.819218 -0.071579 -0.568997
vn 0.847736 -0.498573 -0.181022
vn 0.847736 -0.498573 -0.181023
vn -0.688319 -0.438107 -0.578170
vn -0.688319 -0.438107 -0.578170
vn -0.700005 0.639875 0.317101
vn -0.700005 0.639875 0.317101
vn 0.816007 0.321407 0.480448
vn 0.816007 0.321407 0.480448
vn -0.840616 -0.507050 -0.190434
vn -0.840616 -0.507050 -0.190434
vn -0.829313 0.315951 0.460886
vn -0.829313 0.315951 0.460886
vn 0.698640 0.642251 0.315304
vn 0.698640 0.642250 0.315304
vn 0.704702 -0.434389 -0.560983
vn 0.704702 -0.434389 -0.560983
s off
g Mask_01
usemtl initialShadingGroup
f 3/85/1 1/95/2 2/3/3 4/88/4
s 1
f 2/3/5 1/2/6 5/5/7 9/6/8
s 2
f 1/2/9 3/94/10 7/7/11 5/5/12
s 3
f 3/94/13 6/86/14 10/91/15 7/7/16
s 4
f 11/10/17 12/11/18 13/12/19
f 14/13/20 12/11/18 11/10/17
f 13/12/19 12/11/18 15/14/21
f 16/15/22 12/11/18 14/13/20
s 5
f 2/3/23 9/6/24 17/16/25 62/17/26 22/18/27 48/19/28 45/20/29 44/21/30 61/22/31 4/88/32
s 4
f 15/14/21 12/11/18 18/23/33
s 6
f 10/9/34 6/90/35 8/87/36 26/25/37
s 4
f 19/26/38 12/11/18 16/15/22
f 18/23/33 12/11/18 20/27/39
f 21/28/40 12/11/18 19/26/38
s off
f 22/18/41 19/26/42 16/15/43 48/19/44
s 4
f 20/27/39 12/11/18 23/29/45
f 23/29/45 12/11/18 21/28/40
s 2
f 24/30/46 5/5/12 7/7/11 27/84/47
s 1
f 25/32/48 9/6/8 5/5/7 24/30/49
s 5
f 17/16/25 26/25/50 8/87/51 4/88/32 61/22/31 47/33/52 46/34/53 49/35/54 50/36/55 51/37/56 52/38/57 62/17/26
s 3
f 27/84/58 7/7/16 10/91/15 29/89/59
s off
f 25/32/60 24/93/61 27/92/62 28/82/63
s 5
f 9/6/24 25/32/64 28/82/65 64/41/66 40/42/67 55/43/68 54/44/69 53/45/70 63/46/71 17/16/25
s 7
f 30/47/72 31/48/73 32/49/74
f 33/50/75 30/47/72 32/49/74
f 31/48/73 34/51/76 32/49/74
f 35/52/77 33/50/75 32/49/74
f 34/51/76 36/53/78 32/49/74
s 6
f 10/9/34 26/25/37 37/81/79 29/83/80
s 7
f 38/55/81 35/52/77 32/49/74
f 36/53/78 39/56/82 32/49/74
s off
f 36/53/83 40/42/84 64/41/85 43/57/86 39/56/87
s 7
f 41/58/88 38/55/81 32/49/74
f 39/56/82 42/59/89 32/49/74
f 42/59/89 41/58/88 32/49/74
s off
f 39/56/90 43/57/91 59/60/92 42/59/93
f 44/21/94 45/20/95 14/13/96 11/10/97
f 46/34/98 47/33/99 13/12/100 15/14/101
f 45/20/102 48/19/103 16/15/104 14/13/105
f 49/35/106 46/34/107 15/14/108 18/23/109
f 50/36/110 49/35/111 18/23/112 20/27/113
f 51/37/114 50/36/115 20/27/116 23/29/117
f 52/38/118 51/37/119 23/29/120 21/28/121
f 53/45/122 54/44/123 31/48/124 30/47/125
f 54/44/126 55/43/127 34/51/128 31/48/129
f 56/61/130 57/62/131 33/50/132 35/52/133
f 55/43/134 40/42/135 36/53/136 34/51/137
f 58/63/138 56/61/139 35/52/140 38/55/141
f 59/60/142 60/64/143 41/58/144 42/59/145
f 47/33/146 61/22/147 44/21/148 11/10/149 13/12/150
f 22/18/151 62/17/152 52/38/153 21/28/154 19/26/155
f 57/62/156 63/46/157 53/45/158 30/47/159 33/50/160
f 60/64/161 58/63/162 38/55/163 41/58/164
s 5
f 26/25/50 17/16/25 63/46/71 57/62/165 56/61/166 58/63/167 60/64/168 59/60/169 43/57/170 64/41/66 28/82/65 37/81/171
s 8
f 3/1/172 4/4/173 65/65/174 66/66/175
s 9
f 4/4/176 8/24/177 67/67/178 65/65/179
s 10
f 8/24/180 6/105/181 68/98/182 67/67/183
s 11
f 6/8/184 3/1/185 66/66/186 68/68/187
s 12
f 27/31/188 29/104/189 69/103/190 70/70/191
s 13
f 28/40/192 27/31/193 70/70/194 71/71/195
s 14
f 29/39/196 37/54/197 72/72/198 69/69/199
s 15
f 37/54/200 28/40/201 71/71/202 72/72/203
s off
f 74/73/204 73/74/205 75/102/206 76/100/207
f 78/77/208 77/99/209 79/96/210 80/80/211
s 13
f 71/71/195 70/70/194 73/74/212 74/101/213
s 12
f 70/70/191 69/103/190 75/102/214 73/74/215
s 14
f 69/69/199 72/72/198 76/76/216 75/75/217
s 15
f 72/72/203 71/71/202 74/101/218 76/76/219
s 8
f 66/66/175 65/65/174 77/78/220 78/77/221
s 9
f 65/65/179 67/67/178 79/79/222 77/78/223
s 10
f 67/67/183 68/98/182 80/97/224 79/79/225
s 11
f 68/68/187 66/66/186 78/77/226 80/80/227
