# This file uses centimeters as units for non-parametric coordinates.

mtllib 1.mtl
g default
v -0.019271 3.695043 -0.033836
v 0.145829 2.076577 -0.033836
v 0.041001 2.076577 -0.178092
v 0.041001 2.076577 0.110421
v -0.128616 2.076577 0.055337
v -0.128616 2.076577 -0.123008
v -0.019271 1.735595 -0.033836
v 0.025834 3.403090 -0.172660
v 0.070939 2.796322 -0.311454
v -0.137374 3.403090 -0.119620
v -0.255447 2.796322 -0.205436
v -0.137374 3.403090 0.051980
v -0.255447 2.796322 0.137765
v 0.025834 3.403090 0.104989
v 0.070939 2.796322 0.243813
v 0.126694 3.403090 -0.033836
v 0.272660 2.796322 -0.033836
vt 0.512781 0.207889
vt 0.548312 0.241937
vt 0.510136 0.296323
vt 0.581322 0.279532
vt 0.525717 0.335004
vt 0.475556 0.261296
vt 0.775473 0.392781
vt 0.816853 0.238230
vt 1.000000 0.340907
vt 0.838755 0.371245
vt 0.801836 0.445714
vt 0.653795 0.381728
vt 0.956649 0.552644
vt 0.896528 0.406437
vt 0.745507 0.577828
vt 0.856703 0.452892
vt 0.832957 0.398116
vt 0.428497 0.079517
vt 0.670627 0.088325
vt 0.721666 0.321743
vt 0.522396 0.435764
vt 0.342107 0.298050
vn 0.797394 -0.168638 -0.579417
vn 0.797453 -0.168209 -0.579461
vn 0.753246 -0.364710 -0.547364
vn 0.797469 -0.168218 0.579435
vn 0.797410 -0.168647 0.579392
vn 0.753243 -0.364712 0.547366
vn -0.303856 -0.180982 0.935370
vn -0.303826 -0.181501 0.935279
vn -0.291736 -0.328479 0.898327
vn -0.981958 -0.189101 0.000000
vn -0.981958 -0.189101 0.000000
vn -0.952236 -0.305363 0.000000
vn -0.303782 -0.181485 -0.935297
vn -0.303811 -0.180966 -0.935388
vn -0.291743 -0.328480 -0.898324
vn -0.301929 0.212539 -0.929336
vn -0.308942 -0.003375 -0.951075
vn -0.308944 -0.001280 -0.951079
vn -0.301929 0.212539 -0.929336
vn 0.808951 0.009747 -0.587795
vn 0.790518 0.212538 -0.574377
vn 0.790518 0.212538 -0.574377
vn 0.808960 0.008521 -0.587802
vn -0.977154 0.212530 0.000000
vn -0.999956 -0.009428 0.000000
vn -0.999956 -0.009425 0.000000
vn -0.977155 0.212530 0.000000
vn -0.301913 0.212543 0.929341
vn -0.308973 -0.001293 0.951070
vn -0.308972 -0.003388 0.951065
vn -0.301912 0.212544 0.929341
vn 0.790535 0.212548 0.574350
vn 0.808972 0.009746 0.587767
vn 0.808981 0.008521 0.587773
vn 0.790535 0.212548 0.574350
vn -0.286515 0.374961 -0.881654
vn -0.927023 0.375003 0.000000
vn -0.286367 0.374999 0.881686
vn 0.749991 0.374969 0.544896
vn 0.749991 0.374969 -0.544897
s 1
g polySurface644 pCone17
usemtl initialShadingGroup
f 3/1/1 2/2/2 7/3/3
s 2
f 2/2/4 4/4/5 7/3/6
s 3
f 4/4/7 5/5/8 7/3/9
s 4
f 5/5/10 6/6/11 7/3/12
s 5
f 6/6/13 3/1/14 7/3/15
f 8/7/16 9/8/17 11/9/18 10/10/19
s 1
f 9/8/20 8/7/21 16/11/22 17/12/23
s 4
f 10/10/24 11/9/25 13/13/26 12/14/27
s 3
f 12/14/28 13/13/29 15/15/30 14/16/31
s 2
f 14/16/32 15/15/33 17/12/34 16/11/35
s 5
f 8/7/16 10/10/19 1/17/36
s 4
f 10/10/24 12/14/27 1/17/37
s 3
f 12/14/28 14/16/31 1/17/38
s 2
f 14/16/32 16/11/35 1/17/39
s 1
f 16/11/22 8/7/21 1/17/40
f 9/18/20 17/19/23 2/2/2 3/1/1
s 2
f 17/19/34 15/20/33 4/4/5 2/2/4
s 3
f 15/20/30 13/21/29 5/5/8 4/4/7
s 4
f 13/21/26 11/22/25 6/6/11 5/5/10
s 5
f 11/22/18 9/18/17 3/1/14 6/6/13
